<svg width="24" height="25" viewBox="0 0 24 25" fill="none" xmlns="http://www.w3.org/2000/svg">
<path fill-rule="evenodd" clip-rule="evenodd" d="M12.1592 14.5959C12.1592 14.0222 12.0299 13.5336 11.7712 13.1311C11.5144 12.7272 11.1301 12.4339 10.6235 12.2477C10.9579 12.0766 11.2105 11.887 11.3816 11.6786C11.689 11.307 11.8416 10.8178 11.8416 10.2064C11.8416 9.61392 11.6908 9.10419 11.3864 8.67938C10.879 7.98675 10.0198 7.63406 8.80793 7.61426H4V17.6143H8.48355C8.98808 17.6143 9.45645 17.5689 9.88918 17.4791C10.3205 17.3895 10.6958 17.2217 11.0127 16.977C11.2941 16.7655 11.5283 16.5027 11.7169 16.1916C12.0134 15.7215 12.1592 15.1892 12.1592 14.5959ZM14.4402 9.02956H18.4492H18.4496V8.0293H14.4402V9.02956ZM6.2961 11.5566H8.40273C8.83565 11.5566 9.18561 11.474 9.45516 11.3087C9.72451 11.1438 9.85891 10.8505 9.85891 10.4295C9.85891 9.96434 9.68095 9.65559 9.32418 9.507C9.01751 9.40376 8.62514 9.35059 8.14904 9.35059H6.2961V11.5566ZM9.42852 13.3819C9.85039 13.5746 10.0618 13.9337 10.0618 14.4531C10.0618 15.0691 9.84343 15.484 9.40806 15.702C9.16664 15.8205 8.83212 15.8773 8.3999 15.8773H6.2961V13.2124H8.43297C8.85975 13.2164 9.19261 13.2724 9.42852 13.3819ZM19.9367 12.8261C19.9851 13.1532 20.007 13.6279 19.9981 14.2484H14.806C14.8346 14.9682 15.0821 15.4717 15.5513 15.7597C15.8343 15.9404 16.1773 16.0286 16.5791 16.0286C17.0027 16.0286 17.348 15.921 17.6138 15.6999C17.7586 15.5827 17.8863 15.4173 17.9968 15.2085H19.8998C19.85 15.6337 19.6209 16.0649 19.2091 16.5031C18.5711 17.1996 17.6763 17.5489 16.5272 17.5489C15.5778 17.5489 14.7412 17.2543 14.015 16.6674C13.2912 16.0783 12.9277 15.1231 12.9277 13.7979C12.9277 12.5553 13.2541 11.6041 13.909 10.9421C14.5663 10.2788 15.4145 9.94873 16.4602 9.94873C17.0799 9.94873 17.6386 10.06 18.137 10.2837C18.6339 10.5076 19.0445 10.8601 19.3679 11.3444C19.6606 11.771 19.8488 12.2642 19.9367 12.8261ZM17.5653 11.881C17.2698 11.6228 16.9007 11.4932 16.4603 11.4932L17.5653 11.881ZM16.4603 11.4932C15.981 11.4932 15.6108 11.6317 15.3478 11.904L16.4603 11.4932ZM15.3478 11.904C15.0831 12.1758 14.9183 12.5452 14.8508 13.013L15.3478 11.904ZM14.8508 13.013L18.0636 13.013L14.8508 13.013Z" fill="#E0E3E7"/>
</svg>
