<svg width="24" height="25" viewBox="0 0 24 25" fill="none" xmlns="http://www.w3.org/2000/svg">
<g clip-path="url(#clip0)">
<path d="M15.3675 15.5359C14.656 16.1853 13.7358 16.5377 12.7863 16.5246C10.5983 16.5246 8.99145 14.865 8.99145 12.5876C8.99145 10.3102 10.547 8.72129 12.7863 8.72129C13.7379 8.708 14.6616 9.05319 15.3846 9.69229L15.8632 10.116L17.9829 7.92684L17.453 7.41486C16.1709 6.23185 14.5054 5.58918 12.7863 5.6141C8.8547 5.6141 6 8.54474 6 12.57C6 16.5952 8.92308 19.6141 12.7863 19.6141C14.5217 19.6381 16.2015 18.982 17.4872 17.778L18 17.2837L15.8462 15.0946L15.3675 15.5359Z" fill="#E0E3E7"/>
<path d="M12.6839 14.9534C13.9395 14.9534 14.9574 13.9022 14.9574 12.6054C14.9574 11.3086 13.9395 10.2573 12.6839 10.2573C11.4283 10.2573 10.4104 11.3086 10.4104 12.6054C10.4104 13.9022 11.4283 14.9534 12.6839 14.9534Z" fill="#E0E3E7"/>
</g>
<defs>
<clipPath id="clip0">
<rect width="12" height="14" fill="white" transform="translate(6 5.61426)"/>
</clipPath>
</defs>
</svg>
