<svg width="24" height="25" viewBox="0 0 24 25" fill="none" xmlns="http://www.w3.org/2000/svg">
<path fill-rule="evenodd" clip-rule="evenodd" d="M12 4.61426C7.58875 4.61426 4 8.20305 4 12.6143C4 17.0255 7.58875 20.6143 12 20.6143C16.4112 20.6143 20 17.0255 20 12.6143C20 8.20305 16.4112 4.61426 12 4.61426ZM17.2134 8.38721C18.1115 9.49273 18.6644 10.8881 18.7104 12.4092C17.0467 12.0648 15.5403 12.1052 14.2104 12.366C13.9696 11.8028 13.7203 11.2664 13.4688 10.7593C14.917 10.1354 16.1779 9.3385 17.2134 8.38721ZM12.8733 9.6172C14.0929 9.10434 15.2841 8.40968 16.3119 7.47149C15.1444 6.49099 13.6403 5.89893 11.9998 5.89893C11.5198 5.89893 11.0516 5.95056 10.5998 6.04681C11.1216 6.74738 11.9781 7.98015 12.8733 9.6172ZM9.30269 6.46631C9.69668 6.97685 10.6351 8.25518 11.6432 10.0739C9.10967 10.8994 6.65135 11.0384 5.47005 11.0514C5.96244 8.99445 7.40286 7.30312 9.30269 6.46631ZM5.32959 12.3392L5.29174 12.3391C5.28798 12.4306 5.28472 12.5221 5.28472 12.6144C5.28472 14.2662 5.88526 15.7795 6.87808 16.9504C7.4143 16.2882 8.39633 15.2172 9.79813 14.2518C10.6341 13.6762 11.6894 13.0965 12.9408 12.6936C12.7166 12.1809 12.4853 11.6917 12.2526 11.228C11.3589 11.5336 10.4064 11.7801 9.40191 11.9633C7.64131 12.2843 6.14584 12.3392 5.32959 12.3392ZM7.80338 17.8515C8.26503 17.2702 9.20467 16.2122 10.5639 15.2838C11.4876 14.6529 12.4433 14.1841 13.4271 13.8765C13.9979 15.356 14.4852 16.9909 14.7758 18.7267C13.9291 19.1127 12.9897 19.3297 12 19.3297C10.413 19.3297 8.95393 18.7753 7.80338 17.8515ZM14.6953 13.5717C15.2116 14.9416 15.6582 16.4406 15.9576 18.0349C17.3491 17.0162 18.335 15.4762 18.6257 13.7044C17.2777 13.4016 15.9652 13.3574 14.6953 13.5717Z" fill="#E0E3E7"/>
</svg>
