<svg width="24" height="25" viewBox="0 0 24 25" fill="none" xmlns="http://www.w3.org/2000/svg">
<path fill-rule="evenodd" clip-rule="evenodd" d="M9 4.61426H15C17.761 4.61426 20 6.85326 20 9.61426V15.6143C20 18.3753 17.761 20.6143 15 20.6143H9C6.239 20.6143 4 18.3753 4 15.6143V9.61426C4 6.85326 6.239 4.61426 9 4.61426ZM15 19.1143C16.93 19.1143 18.5 17.5443 18.5 15.6143V9.61426C18.5 7.68426 16.93 6.11426 15 6.11426H9C7.07 6.11426 5.5 7.68426 5.5 9.61426V15.6143C5.5 17.5443 7.07 19.1143 9 19.1143H15ZM7.55554 12.6144C7.55554 10.1599 9.54554 8.16992 12 8.16992C14.4544 8.16992 16.4444 10.1599 16.4444 12.6144C16.4444 15.0688 14.4544 17.0588 12 17.0588C9.54554 17.0588 7.55554 15.0688 7.55554 12.6144ZM9.33322 12.6139C9.33322 14.0838 10.53 15.2806 11.9999 15.2806C13.4698 15.2806 14.6666 14.0838 14.6666 12.6139C14.6666 11.143 13.4698 9.94727 11.9999 9.94727C10.53 9.94727 9.33322 11.143 9.33322 12.6139ZM16.4444 8.61436C16.4444 8.85983 16.2454 9.05881 16 9.05881C15.7545 9.05881 15.5555 8.85983 15.5555 8.61436C15.5555 8.3689 15.7545 8.16992 16 8.16992C16.2454 8.16992 16.4444 8.3689 16.4444 8.61436Z" fill="#E0E3E7"/>
</svg>
