<svg width="24" height="25" viewBox="0 0 24 25" fill="none" xmlns="http://www.w3.org/2000/svg">
<path fill-rule="evenodd" clip-rule="evenodd" d="M6.01219 5.61426C4.79569 5.61426 4 6.45387 4 7.55799C4 8.63805 4.77267 9.50314 5.96499 9.50314H5.98874C7.2288 9.50314 8 8.63821 8 7.55799C7.97663 6.45387 7.2288 5.61426 6.01219 5.61426ZM20.0001 13.9493V19.614H16.5938V14.3287C16.5938 13.001 16.1012 12.0949 14.8682 12.0949C13.927 12.0949 13.3669 12.7056 13.1205 13.2963C13.0306 13.5074 13.0075 13.8014 13.0075 14.097V19.614H9.6001C9.6001 19.614 9.64599 10.6625 9.6001 9.73502H13.0072V11.1353C13.0047 11.139 13.0021 11.1428 12.9994 11.1465C12.9943 11.1536 12.989 11.1606 12.9848 11.1672H13.0072V11.1353C13.4598 10.4632 14.2682 9.50293 16.0777 9.50293C18.3195 9.50289 20.0001 10.9149 20.0001 13.9493ZM8 19.6141H4V10.2808H8V19.6141Z" fill="#E0E3E7"/>
</svg>
