<svg width="24" height="25" viewBox="0 0 24 25" fill="none" xmlns="http://www.w3.org/2000/svg">
<path d="M20 8.3287H19.1171C18.8872 8.3287 18.2857 8.57846 18.2857 8.79107V16.5121C18.2857 16.7253 18.8872 16.9 19.1171 16.9H20V18.6143H14.2857V16.9H15.4288V8.89984H15.2299L12.4791 18.6142H10.3494L7.63424 8.89984H7.4286V16.9H8.57124V18.6142H4V16.9H4.634C4.8829 16.9 5.14268 16.7253 5.14268 16.5121V8.79107C5.14268 8.57843 4.88293 8.3287 4.634 8.3287H4V6.61426H9.92419L11.8585 13.4713H11.9106L13.8639 6.61426H20V8.3287Z" fill="#E0E3E7"/>
</svg>
