<svg width="24" height="25" viewBox="0 0 24 25" fill="none" xmlns="http://www.w3.org/2000/svg">
<path d="M20 9.15326C19.405 9.41426 18.771 9.58726 18.11 9.67126C18.79 9.26526 19.309 8.62726 19.553 7.85826C18.919 8.23626 18.219 8.50326 17.473 8.65226C16.871 8.01126 16.013 7.61426 15.077 7.61426C13.261 7.61426 11.799 9.08826 11.799 10.8953C11.799 11.1553 11.821 11.4053 11.875 11.6433C9.148 11.5103 6.735 10.2033 5.114 8.21226C4.831 8.70326 4.665 9.26526 4.665 9.87026C4.665 11.0063 5.25 12.0133 6.122 12.5963C5.595 12.5863 5.078 12.4333 4.64 12.1923C4.64 12.2023 4.64 12.2153 4.64 12.2283C4.64 13.8223 5.777 15.1463 7.268 15.4513C7.001 15.5243 6.71 15.5593 6.408 15.5593C6.198 15.5593 5.986 15.5473 5.787 15.5033C6.212 16.8023 7.418 17.7573 8.852 17.7883C7.736 18.6613 6.319 19.1873 4.785 19.1873C4.516 19.1873 4.258 19.1753 4 19.1423C5.453 20.0793 7.175 20.6143 9.032 20.6143C15.068 20.6143 18.368 15.6143 18.368 11.2803C18.368 11.1353 18.363 10.9953 18.356 10.8563C19.007 10.3943 19.554 9.81726 20 9.15326Z" fill="#E0E3E7"/>
</svg>
