<svg width="171" height="37" fill="none" xmlns="http://www.w3.org/2000/svg"><path d="M7.416 0c1.885.06 3.77.06 5.623.213 1.611.152 3.283.273 4.803.76 4.285 1.398 6.99 4.437 8.115 8.814 1.003 3.921.881 7.781-.912 11.49-1.854 3.799-5.045 5.957-9.21 6.443-3.1.365-6.26.304-9.391.395-2.158.06-4.286 0-6.444 0V0h7.416zM6.231 23.13c.213.03.365.061.486.03 2.158-.12 4.347-.151 6.505-.364 3.617-.334 5.44-1.945 6.504-5.41.669-2.158.547-4.316 0-6.474-.73-2.797-2.462-4.62-5.289-5.35-.638-.152-1.306-.273-1.975-.273-2.067-.03-4.134 0-6.231 0V23.13zm45.5-8.753C51.671 6.504 57.507.09 66.108.182c8.024.092 13.83 5.988 13.92 14.134.062 7.811-5.744 14.225-14.193 14.225-8.116 0-14.134-6.049-14.103-14.164zm14.863 8.358c2.371-.06 4.924-1.246 6.292-4.316 1.125-2.492 1.125-5.015.213-7.568-1.034-2.827-3.13-4.529-6.049-4.863-2.948-.365-5.653.395-7.477 2.948-1.52 2.158-1.854 4.59-1.459 7.173.639 4.012 3.587 6.626 8.48 6.626zm20.486-8.389C86.99 6.474 92.886.121 101.337.213c8.145.06 14.011 5.987 14.042 14.164 0 8.085-5.927 14.194-14.194 14.194-8.177-.03-14.103-5.988-14.103-14.225zm21.945.03c0-.334.031-.638 0-.972-.334-5.046-4.285-7.994-8.48-7.508-3.222.365-5.592 1.885-6.626 5.016-.425 1.337-.668 2.857-.577 4.255.517 7.477 7.75 9.057 12.158 6.352 2.674-1.58 3.465-4.194 3.525-7.142zm52.34 13.678h-6.049c-.03-.334-.06-.638-.06-.942 0-3.526-.031-7.082 0-10.608 0-1.003-.244-1.884-.821-2.705-2.796-4.194-5.593-8.45-8.389-12.674-.182-.274-.334-.548-.608-.943h1.398c1.672 0 3.344.03 4.985-.03.729-.03 1.185.243 1.55.851 1.398 2.34 2.857 4.65 4.286 6.99.152.274.364.517.577.882.304-.456.578-.85.851-1.246 1.398-2.25 2.827-4.498 4.195-6.748.304-.516.668-.73 1.276-.73 2.098.031 4.195 0 6.444 0-.182.335-.304.578-.456.791a1878.779 1878.779 0 01-8.419 12.827c-.547.85-.821 1.702-.821 2.705.03 3.495 0 7.021 0 10.516.061.365.061.669.061 1.064zM32.492 36.109v-5.167a28.211 28.211 0 011.55-.335c1.398-.273 2.25-1.124 2.462-2.492.152-1.033.304-2.067.304-3.1.03-7.842 0-15.684 0-23.526 0-1.276 0-1.276 1.246-1.246 1.398 0 2.796.03 4.194 0 .578 0 .79.152.79.76-.03 8.723 0 17.447-.06 26.17 0 1.854-.517 3.647-1.459 5.289-1.337 2.37-3.435 3.556-6.11 3.708-.941 0-1.914-.061-2.917-.061zM139.906.182c-2.188 2.553-4.225 4.985-6.261 7.386-1.702 2.006-3.404 4.012-5.137 5.958-.456.516-.364.82.031 1.276 3.617 4.195 7.203 8.42 10.79 12.644.152.152.273.335.516.639h-1.702c-1.641 0-3.282.03-4.924-.03-.364 0-.82-.153-1.063-.426a4384.64 4384.64 0 01-11.459-13.344c-.03-.03-.03-.06-.091-.152 1.246-1.458 2.492-2.948 3.769-4.437 2.492-2.918 5.015-5.836 7.538-8.784.455-.517.942-.79 1.641-.76 2.067.06 4.103.03 6.352.03z" fill="#fff"/></svg>