<svg width="156" height="37" fill="none" xmlns="http://www.w3.org/2000/svg"><path fill-rule="evenodd" clip-rule="evenodd" d="M26.42 10.006a73.973 73.973 0 00-10.181 8.037.788.788 0 000 1.142 73.973 73.973 0 0010.182 8.038c.351.23.464.697.246 1.056a45.716 45.716 0 01-6.25 8.098.786.786 0 01-.978.119A74.046 74.046 0 01.166 19.1a.795.795 0 010-.972A74.038 74.038 0 0119.439.733a.786.786 0 01.978.118 45.714 45.714 0 016.25 8.098.781.781 0 01-.246 1.057zm17.442 7.724a.263.263 0 00-.027.327l5.053 7.59a.153.153 0 01-.127.239h-3.608a.261.261 0 01-.218-.117l-3.441-5.167a.203.203 0 00-.315-.028l-1.64 1.703a.263.263 0 00-.073.183v2.975a.45.45 0 01-.45.45h-2.627a.45.45 0 01-.452-.45V12.709c0-.249.202-.451.452-.451h2.626a.45.45 0 01.451.451v5.018c0 .138.17.206.266.105l5.202-5.484a.265.265 0 01.192-.082l3.542.013c.134 0 .203.162.11.26l-4.916 5.191zm17.124-5.463h2.625a.45.45 0 01.451.45v12.726c0 .25-.202.452-.451.452h-2.835a.45.45 0 01-.375-.201l-5.134-7.71c-.084-.126-.28-.066-.28.086v7.373c0 .25-.202.452-.45.452H51.91a.451.451 0 01-.451-.452V12.718a.45.45 0 01.451-.451h2.835a.45.45 0 01.375.2l5.133 7.71c.084.126.281.067.281-.085v-7.374a.45.45 0 01.45-.451zm17.189-.001h-2.626a.45.45 0 00-.45.452v7.435c0 .853-.262 1.486-.73 1.986-.331.357-1.03.767-1.782.767-.764 0-1.287-.227-1.836-.734-.522-.483-.756-1.18-.756-2.02v-7.434a.451.451 0 00-.45-.452h-2.628a.451.451 0 00-.45.45v7.414c0 1.159.251 2.174.755 3.045a5.07 5.07 0 002.141 2.014c.924.47 1.991.705 3.215.705 1.224 0 2.297-.234 3.209-.705a4.979 4.979 0 002.103-2.014c.49-.871.736-1.886.736-3.045v-7.413a.451.451 0 00-.451-.451zm17.678 0h2.627c.25 0 .451.203.451.452v12.725c0 .25-.202.452-.451.452h-2.627a.451.451 0 01-.45-.452V12.718a.45.45 0 01.45-.451zm59.702 0h-10.829c-.246 0-.446.2-.446.447v1.947c0 .246.2.446.446.446h3.387l.008.002h.008l.01.002c.01 0 .02.004.03.006.096.026.171.1.197.197l.006.03v.005l.002.014a.148.148 0 01.002.022v10.065c0 .246.199.446.445.446h2.638c.246 0 .445-.2.445-.446V15.384c0-.014.003-.028.004-.041l.001-.007.001-.004a.275.275 0 01.202-.216l.007-.002a.271.271 0 01.063-.008h3.373c.246 0 .445-.2.445-.446v-1.947a.445.445 0 00-.445-.446zm-23.455 0h9.34c.245 0 .444.2.444.445v1.95a.444.444 0 01-.444.445h-6.061a.197.197 0 00-.198.197v2.633c0 .11.088.198.198.198h3.904c.109 0 .197.089.197.198v2.444a.197.197 0 01-.197.198h-3.904a.197.197 0 00-.198.197v4.278c0 .246-.2.446-.445.446H132.1a.445.445 0 01-.446-.446V12.713c0-.247.199-.446.446-.446zM89.452 21.86c-.08.698-.713 1.204-1.415 1.204h-3.278a.203.203 0 01-.202-.203v-2.327c0-.111.09-.203.203-.203h3.325c.194 0 .377.041.544.114.534.226.894.783.823 1.415zm-4.688-6.842l2.767-.001c.194 0 .377.041.544.114a1.364 1.364 0 01-.529 2.62h-2.772a.202.202 0 01-.202-.203V15.21c0-.107.086-.193.192-.193zm5.94 3.706a.044.044 0 01-.006-.08c.377-.203 1.841-1.11 1.841-2.88 0-1.749-1.591-3.488-3.305-3.488l-4.108-.003h-.055l-3.597-.003c-.247 0-.444.2-.444.446v12.73c0 .25.202.452.45.452h6.61c.394 0 1.136-.028 1.532-.09 1.713-.268 3.38-1.754 3.38-3.548 0-2.49-1.854-3.363-2.298-3.536zm27.833.357c0 1.899 1.608 3.438 3.591 3.438s3.591-1.54 3.591-3.438c0-1.898-1.608-3.437-3.591-3.437s-3.591 1.539-3.591 3.437zm-3.527 0c0-3.763 3.186-6.813 7.117-6.813s7.118 3.05 7.118 6.813c0 3.764-3.187 6.814-7.118 6.814-3.931 0-7.117-3.05-7.117-6.814zm-2.375-5.284a95.283 95.283 0 00-.799-.399c-.557-.274-1.18-.469-1.855-.667-.912-.267-2.262-.459-3.087-.459-1.076 0-2.156.157-2.951.467-.795.31-1.475.83-1.931 1.445-.456.614-.684 1.356-.684 2.225s.224 1.563.629 2.113c.466.636 1.152 1.044 1.507 1.202.334.149 1.418.504 2.387.821h.001c.728.24 1.39.456 1.62.548.348.14.592.48.592.878 0 .524-.424.966-.947.949-.639-.021-1.708-.269-2.241-.474-.803-.308-1.52-.69-2.124-1.189a.228.228 0 00-.354.072l-.865 1.754-.158.32a1.076 1.076 0 01-.008.028l-.347.726a.171.171 0 00.077.227l.072.036c.229.115.574.288.727.363.556.274 1.179.47 1.854.668.913.266 2.263.459 3.087.459 1.077 0 2.156-.157 2.952-.468.795-.31 1.474-.83 1.93-1.444.457-.615.685-1.356.685-2.226 0-.868-.21-1.573-.629-2.113a4.238 4.238 0 00-.539-.568 3.792 3.792 0 00-.968-.633c-.334-.15-1.419-.505-2.388-.822-.728-.239-1.391-.456-1.621-.548a.946.946 0 01-.592-.878c0-.523.425-.966.947-.948.64.021 1.709.268 2.242.473.803.308 1.52.691 2.123 1.19a.23.23 0 00.355-.072l.865-1.755.158-.32a1.007 1.007 0 01.007-.025l.001-.002.347-.726a.171.171 0 00-.077-.228z" fill="#fff"/></svg>