<svg width="108" height="38" fill="none" xmlns="http://www.w3.org/2000/svg"><path d="M48.216.513c.067-.18.109-.39.27-.513.343.996.76 1.965 1.117 2.957a758.99 758.99 0 012.16 5.667c.58 1.41 1.096 2.845 1.647 4.266 2.072 5.433 4.145 10.865 6.198 16.305 1.09 2.828 2.136 5.672 3.23 8.497l.04.156c-2.431.006-4.863-.003-7.295.005a.626.626 0 01-.223-.036c-.942-2.523-1.874-5.052-2.81-7.577-.044-.121-.102-.284-.261-.25-2.505-.005-5.009 0-7.512 0-.18 0-.362-.012-.537.03-.938 2.592-1.817 5.21-2.738 7.809-.1.02-.203.023-.303.024-2.315-.01-4.632.004-6.946-.006.005-.042.014-.128.02-.17 1.084-2.9 2.176-5.798 3.258-8.699.995-2.613 1.94-5.245 2.97-7.844.553-1.53 1.16-3.042 1.705-4.576.225-.585.456-1.168.645-1.766 1.782-4.762 3.574-9.52 5.365-14.279zm.135 18.056c-.384.975-.706 1.978-1.07 2.961-.526 1.47-1.052 2.939-1.575 4.41-.082.254-.233.494-.24.768 1.055.051 2.114.005 3.17.021.87-.016 1.74.032 2.61-.022-.004-.198-.103-.375-.166-.558M64.882 9.063c.806-.075 1.616-.043 2.425-.063 2.105.002 4.21-.01 6.316.017 1.11.09 2.227.044 3.338.124.718.122 1.444.219 2.136.458 1.387.44 2.68 1.257 3.58 2.432a7.29 7.29 0 011.041 1.941c.21.576.303 1.184.4 1.788.028.355.001.711.009 1.067a7.45 7.45 0 01-1.43 4.676c-.633.905-1.509 1.599-2.447 2.149-.74.392-1.51.747-2.33.924.044.109.154.159.252.21 1.123.526 1.96 1.506 2.655 2.52.678 1.015 1.299 2.067 1.94 3.106 1.514 2.462 3.002 4.941 4.537 7.39-.223.087-.466.043-.697.05-2.105-.004-4.21-.002-6.316-.002-.248-.004-.498.02-.744-.01-.139-.127-.215-.305-.31-.463-1.42-2.42-2.835-4.843-4.253-7.264-.704-1.217-1.466-2.435-2.541-3.349-.584-.46-1.276-.845-2.022-.904-.007 3.24 0 6.483-.003 9.723-.024.754.047 1.515-.033 2.264-2.377.006-4.755.002-7.131.003-.015-5.48-.002-10.961-.007-16.441.005-4.102-.007-8.204.006-12.304.54-.071 1.086.01 1.629-.042zm5.55 3.22c-.035.94-.003 1.884-.014 2.826 0 2.479.001 4.959-.001 7.439.363.064.733.018 1.1.033.385.015.765-.063 1.139-.148 1.204-.262 2.354-.913 3.11-1.92.747-1.004 1.111-2.287 1.065-3.542.014-.947-.247-1.913-.772-2.699-.633-.907-1.613-1.525-2.665-1.792-.431-.1-.864-.23-1.311-.21-.55.015-1.102-.026-1.651.013zM0 9.12c2.432-.007 4.865.005 7.298-.006.082.011.213-.02.243.09 1.363 3.976 2.721 7.957 4.086 11.935.791 2.323 1.599 4.642 2.374 6.972l.107.065c.17-.341.242-.724.388-1.077 1.999-5.715 4-11.428 5.998-17.144.102-.275.169-.567.303-.83 2.468-.014 4.938-.007 7.407-.004-3.469 9.593-6.966 19.179-10.437 28.772-.023.104-.148.09-.228.1-2.104-.002-4.209 0-6.313 0-.332-.02-.673.045-.999-.03C6.898 28.612 3.575 19.258.25 9.906c-.086-.26-.222-.51-.25-.787zm84.538.012c1.765-.034 3.533-.004 5.299-.014h18.159c.005 1.01.005 2.023 0 3.034-2.053.002-4.105-.001-6.157.001-.696.018-1.395-.037-2.088.026.01 7.92.002 15.84.005 23.762-.022.635.044 1.276-.031 1.907-2.33.005-4.66 0-6.99.002-.004-7.723-.001-15.447-.002-23.17-.013-.837.025-1.675-.015-2.51-1.965-.04-3.934-.006-5.9-.018-.76-.012-1.522.025-2.28-.015-.02-1-.021-2.004 0-3.005zM30.21 18.81c.987-.144 2.025-.028 2.917.447a4.833 4.833 0 012.186 2.283c.788 1.706.498 3.873-.748 5.274a4.629 4.629 0 01-2.396 1.49c-1.24.336-2.605.107-3.693-.578a4.832 4.832 0 01-2.127-3.064c-.369-1.54.112-3.238 1.17-4.388.704-.777 1.672-1.282 2.69-1.465z" fill="#fff"/></svg>