<svg width="163" height="38" fill="none" xmlns="http://www.w3.org/2000/svg"><path fill-rule="evenodd" clip-rule="evenodd" d="M27.606 9.913a77.414 77.414 0 00-10.639 8.484.838.838 0 000 1.206 77.41 77.41 0 0010.64 8.483.83.83 0 01.256 1.116 48.195 48.195 0 01-6.53 8.548.816.816 0 01-1.021.125A77.65 77.65 0 01.172 19.513a.846.846 0 010-1.026A77.639 77.639 0 0120.312.126a.815.815 0 011.021.124 48.194 48.194 0 016.53 8.548.83.83 0 01-.257 1.115zm18.225 8.154a.28.28 0 00-.03.345l5.281 8.012a.162.162 0 01-.133.252h-3.77a.273.273 0 01-.228-.124l-3.595-5.454a.21.21 0 00-.329-.03l-1.713 1.799a.28.28 0 00-.077.192v3.14c0 .264-.21.477-.471.477h-2.745a.474.474 0 01-.47-.477V12.767c0-.263.21-.476.47-.476h2.745c.26 0 .471.213.471.476l.001 5.296a.16.16 0 00.277.112l5.436-5.79a.275.275 0 01.2-.086l3.7.014c.14 0 .213.17.116.274l-5.136 5.48zM63.722 12.3h2.743c.26 0 .472.213.472.476V26.21a.474.474 0 01-.472.476h-2.962a.468.468 0 01-.391-.212l-5.364-8.138c-.088-.133-.294-.07-.294.09v7.784a.474.474 0 01-.47.476H54.24a.474.474 0 01-.47-.476V12.776c0-.263.21-.476.47-.476h2.962a.47.47 0 01.392.212l5.364 8.137c.088.134.294.071.294-.09v-7.783c0-.263.21-.476.47-.476zm17.96 0H78.94c-.26 0-.47.213-.47.476v7.848c0 .901-.274 1.569-.762 2.097-.347.377-1.077.81-1.863.81-.798 0-1.345-.24-1.919-.775-.545-.51-.79-1.245-.79-2.132v-7.848a.474.474 0 00-.47-.476H69.92c-.26 0-.47.212-.47.475V20.6c0 1.223.262 2.295.788 3.215a5.319 5.319 0 002.238 2.125c.965.497 2.08.745 3.359.745 1.278 0 2.4-.248 3.353-.745a5.225 5.225 0 002.197-2.125c.512-.92.769-1.992.769-3.215v-7.825a.474.474 0 00-.471-.476zm18.472 0h2.745c.26 0 .471.213.471.476V26.21a.474.474 0 01-.471.476h-2.745a.474.474 0 01-.47-.476V12.776c0-.263.21-.476.47-.476zm62.38 0H151.22a.469.469 0 00-.466.47v2.056c0 .26.209.47.466.47h3.524c.014 0 .028.003.042.005.011 0 .021.004.031.007a.29.29 0 01.206.208c.002.01.006.02.006.031l.001.006a.225.225 0 01.004.037v10.624c0 .26.208.47.465.47h2.756c.257 0 .465-.21.465-.47V15.59a.22.22 0 01.004-.037l.001-.006.006-.031a.289.289 0 01.206-.208l.015-.004a.092.092 0 01.016-.003c.014-.002.028-.004.042-.004h3.524a.468.468 0 00.466-.471v-2.055a.468.468 0 00-.466-.471zm-24.507 0h9.759c.257 0 .464.21.464.469v2.059a.466.466 0 01-.464.469h-6.333a.207.207 0 00-.206.208v2.78c0 .115.092.208.206.208h4.08c.114 0 .206.094.206.21v2.579a.207.207 0 01-.206.209h-4.08a.207.207 0 00-.206.208v4.515c0 .26-.209.47-.465.47h-2.755a.467.467 0 01-.465-.47V12.771c0-.26.208-.471.465-.471zM93.465 22.425c-.082.737-.744 1.27-1.478 1.27l-3.425.002a.213.213 0 01-.212-.215v-2.456c0-.118.096-.215.213-.215h3.474a1.44 1.44 0 011.428 1.614zm-4.898-7.222l2.891-.002a1.4 1.4 0 01.568.121c.51.219.87.73.87 1.326a1.43 1.43 0 01-1.422 1.44h-2.897a.212.212 0 01-.21-.214v-2.468c0-.112.09-.203.2-.203zm6.207 3.912c-.037-.015-.043-.064-.007-.084.394-.215 1.924-1.172 1.924-3.04 0-1.846-1.663-3.682-3.454-3.682l-4.346-.003h-.005l-3.757-.003a.465.465 0 00-.463.47v13.438c0 .263.21.477.47.477l6.907-.001c.41 0 1.186-.029 1.6-.095 1.79-.282 3.531-1.85 3.531-3.745 0-2.627-1.936-3.549-2.4-3.732zm29.081.377c0 2.004 1.679 3.628 3.751 3.628 2.073 0 3.752-1.624 3.752-3.628s-1.679-3.628-3.752-3.628c-2.072 0-3.751 1.624-3.751 3.628zm-3.685 0c0-3.973 3.329-7.193 7.436-7.193 4.108 0 7.437 3.22 7.437 7.193 0 3.972-3.329 7.192-7.437 7.192-4.107 0-7.436-3.22-7.436-7.192zm-2.48-5.578c-.232-.117-.658-.333-.835-.421-.582-.289-1.233-.495-1.938-.704-.954-.282-2.364-.484-3.226-.484-1.124 0-2.253.165-3.084.492-.83.328-1.54.877-2.017 1.525-.477.649-.715 1.432-.715 2.35 0 .916.235 1.648.657 2.23.487.67 1.204 1.102 1.575 1.268.349.157 1.482.532 2.495.868.76.251 1.453.48 1.693.578a.997.997 0 01.619.927c0 .553-.443 1.019-.99 1-.668-.022-1.785-.283-2.342-.499-.838-.325-1.588-.73-2.219-1.255a.237.237 0 00-.37.075l-.904 1.852-.165.337c-.005.01-.005.02-.008.03l-.362.766a.18.18 0 00.079.24l.073.037.004.002c.239.121.599.304.758.383.582.288 1.233.495 1.938.704.954.281 2.364.484 3.226.484 1.124 0 2.252-.165 3.083-.493.831-.327 1.541-.875 2.018-1.525.476-.648.715-1.431.715-2.349 0-.917-.219-1.66-.657-2.23a4.401 4.401 0 00-.564-.6h.001a3.955 3.955 0 00-1.012-.668c-.349-.158-1.482-.533-2.495-.868-.761-.252-1.453-.48-1.694-.578a.997.997 0 01-.618-.927c0-.552.443-1.02.99-1.001.668.023 1.785.283 2.342.5.838.325 1.588.729 2.218 1.255a.238.238 0 00.371-.076l.904-1.851.165-.338.005-.016a.899.899 0 01.003-.013l.363-.766a.182.182 0 00-.08-.24z" fill="#2F3E49"/><path fill-rule="evenodd" clip-rule="evenodd" d="M27.98 8.95c-1.334-2.206-2.87-4.39-4.532-6.34C17.07 10.205 12.065 19.454 9 29.151c3.511 3.25 7.24 6.174 11.311 8.723.323.202.833.153 1.098-.121a47.515 47.515 0 006.476-8.418c.225-.373.109-1.001-.255-1.24-3.76-2.475-7.234-5.395-10.55-8.4-.342-.31-.34-.68 0-1a76.671 76.671 0 0110.55-8.354c.364-.24.576-1.019.35-1.392z" fill="#00BEE0"/></svg>