<svg width="24" height="25" fill="none" xmlns="http://www.w3.org/2000/svg"><path fill-rule="evenodd" clip-rule="evenodd" d="M12.16 14.596c0-.574-.13-1.062-.389-1.465-.257-.404-.64-.697-1.148-.883.335-.171.588-.361.759-.57.307-.371.46-.86.46-1.472 0-.592-.151-1.102-.456-1.527-.507-.692-1.366-1.045-2.578-1.065H4v10h4.484c.504 0 .972-.045 1.405-.135a2.72 2.72 0 001.124-.502 2.76 2.76 0 00.704-.785c.296-.47.442-1.003.442-1.596zm2.28-5.566h4.01v-1h-4.01v1zm-8.144 2.527h2.107c.433 0 .783-.083 1.052-.248.27-.165.404-.458.404-.88 0-.465-.178-.773-.535-.922-.306-.103-.699-.156-1.175-.156H6.296v2.206zm3.133 1.825c.421.193.633.552.633 1.071 0 .616-.219 1.031-.654 1.249-.241.118-.576.175-1.008.175H6.296v-2.665h2.137c.427.004.76.06.996.17zm10.508-.556c.048.327.07.802.061 1.422h-5.192c.029.72.276 1.224.745 1.512.283.18.626.269 1.028.269.424 0 .769-.108 1.035-.33.145-.116.272-.282.383-.49H19.9c-.05.425-.28.856-.69 1.294-.639.697-1.534 1.046-2.683 1.046a3.88 3.88 0 01-2.512-.882c-.724-.589-1.087-1.544-1.087-2.87 0-1.242.326-2.193.981-2.855.657-.663 1.505-.993 2.551-.993.62 0 1.179.111 1.677.335.497.224.907.576 1.23 1.06.294.427.482.92.57 1.482zm-2.372-.945c-.295-.258-.664-.388-1.105-.388l1.105.388zm-1.105-.388c-.479 0-.85.139-1.112.411l1.112-.41zm-1.112.411c-.265.272-.43.641-.497 1.109l.497-1.109zm-.497 1.109h3.213-3.213z" fill="#E0E3E7"/></svg>