<svg width="24" height="25" fill="none" xmlns="http://www.w3.org/2000/svg"><g clip-path="url(#clip0)" fill="#E0E3E7"><path d="M15.367 15.536a3.75 3.75 0 01-2.58.989c-2.189 0-3.796-1.66-3.796-3.937 0-2.278 1.556-3.867 3.795-3.867a3.84 3.84 0 012.599.971l.478.424 2.12-2.19-.53-.511a6.735 6.735 0 00-4.667-1.8C8.855 5.614 6 8.544 6 12.57s2.923 7.044 6.786 7.044a6.739 6.739 0 004.701-1.836l.513-.494-2.154-2.19-.479.442z"/><path d="M12.684 14.953c1.256 0 2.273-1.05 2.273-2.348 0-1.296-1.018-2.348-2.273-2.348-1.256 0-2.274 1.052-2.274 2.348 0 1.297 1.018 2.348 2.274 2.348z"/></g><defs><clipPath id="clip0"><path fill="#fff" transform="translate(6 5.614)" d="M0 0h12v14H0z"/></clipPath></defs></svg>