<svg width="24" height="25" fill="none" xmlns="http://www.w3.org/2000/svg"><path fill-rule="evenodd" clip-rule="evenodd" d="M12 4.614c-4.411 0-8 3.589-8 8 0 4.412 3.589 8 8 8s8-3.588 8-8c0-4.411-3.589-8-8-8zm5.213 3.773a6.682 6.682 0 011.497 4.022 11.292 11.292 0 00-4.5-.043c-.24-.563-.49-1.1-.741-1.607 1.448-.624 2.709-1.42 3.744-2.372zm-4.34 1.23c1.22-.513 2.411-1.207 3.439-2.146A6.684 6.684 0 0010.6 6.047a30.82 30.82 0 012.273 3.57zm-3.57-3.15a29.41 29.41 0 012.34 3.607c-2.533.825-4.992.964-6.173.977a6.74 6.74 0 013.833-4.585zM5.33 12.338h-.038a6.684 6.684 0 001.586 4.611 14.153 14.153 0 012.92-2.698 12.105 12.105 0 013.143-1.558 30.634 30.634 0 00-.688-1.466c-.894.306-1.847.552-2.851.735a23.23 23.23 0 01-4.072.376zm2.473 5.513a12.917 12.917 0 012.76-2.568c.925-.631 1.88-1.1 2.864-1.408a24.995 24.995 0 011.349 4.85A6.674 6.674 0 0112 19.33a6.682 6.682 0 01-4.197-1.478zm6.892-4.28c.517 1.37.963 2.869 1.263 4.463a6.723 6.723 0 002.668-4.33c-1.348-.303-2.66-.348-3.93-.133z" fill="#E0E3E7"/></svg>