<svg width="24" height="25" fill="none" xmlns="http://www.w3.org/2000/svg"><path fill-rule="evenodd" clip-rule="evenodd" d="M9 4.614h6a5 5 0 015 5v6a5 5 0 01-5 5H9a5 5 0 01-5-5v-6a5 5 0 015-5zm6 14.5c1.93 0 3.5-1.57 3.5-3.5v-6c0-1.93-1.57-3.5-3.5-3.5H9c-1.93 0-3.5 1.57-3.5 3.5v6c0 1.93 1.57 3.5 3.5 3.5h6zm-7.444-6.5a4.445 4.445 0 118.889 0 4.445 4.445 0 01-8.89 0zm1.777 0A2.67 2.67 0 0012 15.28a2.67 2.67 0 002.667-2.667A2.67 2.67 0 0012 9.947a2.67 2.67 0 00-2.667 2.667zm7.111-4a.444.444 0 11-.888 0 .444.444 0 01.888 0z" fill="#E0E3E7"/></svg>