<svg width="24" height="25" fill="none" xmlns="http://www.w3.org/2000/svg"><path fill-rule="evenodd" clip-rule="evenodd" d="M6.012 5.614C4.796 5.614 4 6.454 4 7.558c0 1.08.773 1.945 1.965 1.945h.024C7.229 9.503 8 8.638 8 7.558c-.023-1.104-.771-1.944-1.988-1.944zM20 13.95v5.665h-3.406V14.33c0-1.328-.493-2.234-1.726-2.234-.941 0-1.501.61-1.748 1.201-.09.211-.112.505-.112.801v5.517H9.6s.046-8.952 0-9.879h3.407v1.4a.378.378 0 01-.008.011l-.014.021h.022v-.032c.453-.672 1.261-1.632 3.07-1.632 2.242 0 3.923 1.412 3.923 4.446zM8 19.614H4v-9.333h4v9.333z" fill="#E0E3E7"/></svg>