<svg width="25" height="25" viewBox="0 0 25 25" fill="none" xmlns="http://www.w3.org/2000/svg">
<path d="M12.5 2.0835C6.75629 2.0835 2.08337 6.75641 2.08337 12.5002C2.08337 18.2439 6.75629 22.9168 12.5 22.9168C18.2438 22.9168 22.9167 18.2439 22.9167 12.5002C22.9167 6.75641 18.2438 2.0835 12.5 2.0835ZM12.5 20.8335C7.90525 20.8335 4.16671 17.095 4.16671 12.5002C4.16671 7.90537 7.90525 4.16683 12.5 4.16683C17.0948 4.16683 20.8334 7.90537 20.8334 12.5002C20.8334 17.095 17.0948 20.8335 12.5 20.8335Z" fill="white"/>
<path d="M10.4157 14.1533L8.02088 11.7626L6.55005 13.2376L10.4178 17.097L17.4032 10.1116L15.9303 8.63867L10.4157 14.1533Z" fill="white"/>
</svg>
